<svg id="edit" xmlns="http://www.w3.org/2000/svg" width="46" height="46" viewBox="0 0 46 46">
  <rect id="Rectangle_1585" data-name="Rectangle 1585" width="46" height="46" fill="#648dc4" opacity="0"/>
  <path id="Path_2839" data-name="Path 2839" d="M33.721,10.392,28.434,5.1A3.859,3.859,0,0,0,23.3,4.969L5.934,22.336a3.859,3.859,0,0,0-1.1,2.335L4,32.718a1.925,1.925,0,0,0,1.93,2.1h.174l8.047-.733a3.859,3.859,0,0,0,2.335-1.1L33.856,15.621a3.705,3.705,0,0,0-.135-5.23ZM13.807,30.229l-5.789.54.521-5.789,10.9-10.768,5.21,5.21ZM27.16,16.837l-5.172-5.172,3.763-3.859,5.268,5.268Z" transform="translate(3.715 3.773)" fill="#648dc4"/>
</svg>
