<svg width="0" height="0" class="hidden">
  <symbol id="notification" xmlns="http://www.w3.org/2000/svg" viewBox="0 0 30 30">
    <g id="bell">
      <rect id="Rectangle_1554" width="30" height="30" fill="#648dc4" opacity="0"></rect>
      <path id="Path_2815" d="M24.8,18.441l-2.24-2.253V10.637a8.538,8.538,0,0,0-7.244-8.563,8.389,8.389,0,0,0-9.484,8.3v5.812L3.6,18.441a2.041,2.041,0,0,0,1.444,3.472H9.221v.423A4.779,4.779,0,0,0,14.2,26.891a4.779,4.779,0,0,0,4.978-4.555v-.423h4.182A2.041,2.041,0,0,0,24.8,18.441Zm-8.115,3.9A2.34,2.34,0,0,1,14.2,24.4a2.34,2.34,0,0,1-2.489-2.066v-.423h4.978ZM6.122,19.424,7.59,17.955a2.489,2.489,0,0,0,.734-1.767V10.376a5.887,5.887,0,0,1,2.016-4.431A5.812,5.812,0,0,1,15,4.489a6.049,6.049,0,0,1,5.078,6.1v5.6a2.489,2.489,0,0,0,.722,1.767l1.481,1.469Z" transform="translate(0.736 0.49)" fill="#648dc4"></path>
    </g>
  </symbol>
  <symbol id="user" xmlns="http://www.w3.org/2000/svg" viewBox="0 0 33 33">
    <g id="person">
      <rect id="Rectangle_1553" width="33" height="33" fill="#648dc4" opacity="0"></rect>
      <path id="Path_2813" d="M13.481,13.961A5.481,5.481,0,1,0,8,8.481,5.481,5.481,0,0,0,13.481,13.961Zm0-8.221a2.74,2.74,0,1,1-2.74,2.74A2.74,2.74,0,0,1,13.481,5.74Z" transform="translate(2.961 1.11)" fill="#648dc4"></path>
      <path id="Path_2814" d="M14.591,13A9.591,9.591,0,0,0,5,22.591a1.37,1.37,0,0,0,2.74,0,6.851,6.851,0,0,1,13.7,0,1.37,1.37,0,1,0,2.74,0A9.591,9.591,0,0,0,14.591,13Z" transform="translate(1.851 4.812)" fill="#648dc4"></path>
    </g>
  </symbol>
  <symbol version="1.1" id="share" xmlns="http://www.w3.org/2000/svg" xmlns:xlink="http://www.w3.org/1999/xlink" x="0px" y="0px" xml:space="preserve" viewBox="0 0 458.624 458.624">
    <g>
      <g>
        <path d="M339.588,314.529c-14.215,0-27.456,4.133-38.621,11.239l-112.682-78.67c1.809-6.315,2.798-12.976,2.798-19.871
			c0-6.896-0.989-13.557-2.798-19.871l109.64-76.547c11.764,8.356,26.133,13.286,41.662,13.286c39.79,0,72.047-32.257,72.047-72.047
			C411.634,32.258,379.378,0,339.588,0c-39.79,0-72.047,32.257-72.047,72.047c0,5.255,0.578,10.373,1.646,15.308l-112.424,78.491
			c-10.974-6.759-23.892-10.666-37.727-10.666c-39.79,0-72.047,32.257-72.047,72.047s32.256,72.047,72.047,72.047
			c13.834,0,26.753-3.907,37.727-10.666l113.292,79.097c-1.629,6.017-2.514,12.34-2.514,18.872c0,39.79,32.257,72.047,72.047,72.047
			c39.79,0,72.047-32.257,72.047-72.047C411.635,346.787,379.378,314.529,339.588,314.529z"></path>
      </g>
    </g>
    <g></g>
    <g></g>
    <g></g>
    <g></g>
    <g></g>
    <g></g>
    <g></g>
    <g></g>
    <g></g>
    <g></g>
    <g></g>
    <g></g>
    <g></g>
    <g></g>
    <g></g>
  </symbol>
  <symbol id="favourite" xmlns="http://www.w3.org/2000/svg" viewBox="0 0 34 34">
    <g id="heart">
      <rect id="Rectangle_1514" width="34" height="34" fill="#648dc4" opacity="0"></rect>
      <path id="Path_2763" d="M16.076,27.927a1.407,1.407,0,0,1-1-.408L4.14,16.569A7.365,7.365,0,1,1,14.555,6.153l1.52,1.52,1.52-1.52A7.365,7.365,0,1,1,28.011,16.569L17.075,27.519a1.408,1.408,0,0,1-1,.408ZM9.348,6.815A4.5,4.5,0,0,0,6.139,8.138a4.56,4.56,0,0,0,0,6.432l9.937,9.951,9.937-9.951a4.56,4.56,0,0,0,0-6.432,4.673,4.673,0,0,0-6.418,0l-2.519,2.533a1.407,1.407,0,0,1-2,0L12.557,8.138A4.5,4.5,0,0,0,9.348,6.815Z" transform="translate(0.814 1.63)" fill="#648dc4"></path>
    </g>
  </symbol>
  <symbol version="1.1" id="favourite-filled" xmlns="http://www.w3.org/2000/svg" xmlns:xlink="http://www.w3.org/1999/xlink" x="0px" y="0px" xml:space="preserve" viewBox="0 0 512 512">
    <g>
      <g>
        <path d="M478.105,80.067c-45.192-45.192-118.464-45.192-163.656,0L256,138.515l-58.448-58.448
			c-45.192-45.192-118.464-45.192-163.656,0c-45.194,45.192-45.194,118.464-0.002,163.656l222.105,222.105l222.105-222.105
			C523.299,198.531,523.299,125.259,478.105,80.067z" fill="#648dc4"></path>
      </g>
    </g>
    <g></g>
    <g></g>
    <g></g>
    <g></g>
    <g></g>
    <g></g>
    <g></g>
    <g></g>
    <g></g>
    <g></g>
    <g></g>
    <g></g>
    <g></g>
    <g></g>
    <g></g>
  </symbol>
  <symbol fill="#648dc4" xmlns="http://www.w3.org/2000/svg" viewBox="-6 0 24 24" id="facebook">
    <path d="m12.462.173v3.808h-2.265c-.079-.011-.171-.017-.264-.017-.542 0-1.036.203-1.411.538l.002-.002c-.275.384-.439.863-.439 1.381 0 .062.002.124.007.185v-.008 2.726h4.229l-.56 4.27h-3.663v10.946h-4.417v-10.947h-3.68v-4.269h3.68v-3.145c-.007-.102-.011-.222-.011-.342 0-1.478.575-2.822 1.513-3.82l-.003.003c.972-.92 2.288-1.485 3.735-1.485.09 0 .18.002.27.007h-.013c.118-.002.256-.003.395-.003 1.02 0 2.025.064 3.011.188l-.117-.012z"></path>
  </symbol>
  <symbol fill="#648dc4" id="instagram" version="1.1" xml:space="preserve" xmlns="http://www.w3.org/2000/svg" xmlns:xlink="http://www.w3.org/1999/xlink" viewBox="0 0 32 32">
    <g>
      <path d="M22.3,8.4c-0.8,0-1.4,0.6-1.4,1.4c0,0.8,0.6,1.4,1.4,1.4c0.8,0,1.4-0.6,1.4-1.4C23.7,9,23.1,8.4,22.3,8.4z"></path>
      <path d="M16,10.2c-3.3,0-5.9,2.7-5.9,5.9s2.7,5.9,5.9,5.9s5.9-2.7,5.9-5.9S19.3,10.2,16,10.2z M16,19.9c-2.1,0-3.8-1.7-3.8-3.8   c0-2.1,1.7-3.8,3.8-3.8c2.1,0,3.8,1.7,3.8,3.8C19.8,18.2,18.1,19.9,16,19.9z"></path>
      <path d="M20.8,4h-9.5C7.2,4,4,7.2,4,11.2v9.5c0,4,3.2,7.2,7.2,7.2h9.5c4,0,7.2-3.2,7.2-7.2v-9.5C28,7.2,24.8,4,20.8,4z M25.7,20.8   c0,2.7-2.2,5-5,5h-9.5c-2.7,0-5-2.2-5-5v-9.5c0-2.7,2.2-5,5-5h9.5c2.7,0,5,2.2,5,5V20.8z"></path>
    </g>
  </symbol>
  <symbol fill="#648dc4" xmlns="http://www.w3.org/2000/svg" preserveAspectRatio="xMinYMin" viewBox="-2 -2 24 24" id="linkedin">
    <path d="M19.959 11.719v7.379h-4.278v-6.885c0-1.73-.619-2.91-2.167-2.91-1.182 0-1.886.796-2.195 1.565-.113.275-.142.658-.142 1.043v7.187h-4.28s.058-11.66 0-12.869h4.28v1.824l-.028.042h.028v-.042c.568-.875 1.583-2.126 3.856-2.126 2.815 0 4.926 1.84 4.926 5.792zM2.421.026C.958.026 0 .986 0 2.249c0 1.235.93 2.224 2.365 2.224h.028c1.493 0 2.42-.989 2.42-2.224C4.787.986 3.887.026 2.422.026zM.254 19.098h4.278V6.229H.254v12.869z"></path>
  </symbol>
  <symbol fill="none" xmlns="http://www.w3.org/2000/svg" viewBox="0 0 24 24" id="twitter">
    <path d="M7.91 20.889c8.302 0 12.845-6.885 12.845-12.845 0-.193 0-.387-.009-.58A9.197 9.197 0 0 0 23 5.121a9.15 9.15 0 0 1-2.597.713 4.542 4.542 0 0 0 1.99-2.5 8.98 8.98 0 0 1-2.87 1.091A4.506 4.506 0 0 0 16.23 3a4.52 4.52 0 0 0-4.516 4.516c0 .352.044.696.114 1.03-3.75-.185-7.078-1.99-9.305-4.718a4.526 4.526 0 0 0 1.4 6.03 4.566 4.566 0 0 1-2.043-.563v.061A4.524 4.524 0 0 0 5.5 13.784a4.399 4.399 0 0 1-1.189.159c-.29 0-.572-.027-.845-.08a4.514 4.514 0 0 0 4.217 3.135 9.054 9.054 0 0 1-5.608 1.936A8.69 8.69 0 0 1 1 18.873a12.841 12.841 0 0 0 6.91 2.016Z" fill="#648dc4"></path>
  </symbol>
  <symbol fill="none" xmlns="http://www.w3.org/2000/svg" viewBox="0 0 24 24" id="youtube">
    <path fill-rule="evenodd" clip-rule="evenodd" d="M22.54 6.42a2.765 2.765 0 0 0-1.945-1.957C18.88 4 12 4 12 4s-6.88 0-8.595.463A2.765 2.765 0 0 0 1.46 6.42C1 8.148 1 11.75 1 11.75s0 3.602.46 5.33a2.765 2.765 0 0 0 1.945 1.958C5.121 19.5 12 19.5 12 19.5s6.88 0 8.595-.462a2.765 2.765 0 0 0 1.945-1.958c.46-1.726.46-5.33.46-5.33s0-3.602-.46-5.33ZM9.75 8.479v6.542l5.75-3.271-5.75-3.271Z" fill="#648dc4"></path>
  </symbol>
  <symbol fill="#648dc4" version="1.1" id="location" xmlns="http://www.w3.org/2000/svg" xmlns:xlink="http://www.w3.org/1999/xlink" enable-background="new 0 0 20 20" xml:space="preserve" viewBox="0 0 20 20">
    <path d="M9.3,19.7C8.5,18.9,2,12.2,2,8c0-4.4,3.6-8,8-8s8,3.6,8,8c0,4.2-6.5,10.9-7.3,11.7C10.3,20.1,9.7,20.1,9.3,19.7z M10,2
	C6.7,2,4,4.7,4,8c0,2.5,3.8,7.2,6,9.5c2.2-2.3,6-7,6-9.5C16,4.7,13.3,2,10,2z"></path>
    <circle cx="10" cy="8" r="2"></circle>
  </symbol>
  <symbol fill="#648dc4" xmlns="http://www.w3.org/2000/svg" viewBox="0 0 56 56" id="phone">
    <path d="M 18.1562 37.7617 C 24.9297 44.5352 33.1797 49.7617 39.9062 49.7617 C 42.9297 49.7617 45.5781 48.7070 47.7109 46.3633 C 48.9528 44.9805 49.7266 43.3633 49.7266 41.7695 C 49.7266 40.5977 49.2812 39.4727 48.1562 38.6758 L 40.9843 33.5664 C 39.8828 32.8164 38.9687 32.4414 38.1250 32.4414 C 37.0468 32.4414 36.1093 33.0508 35.0312 34.1055 L 33.3671 35.7461 C 33.1093 36.0039 32.7812 36.1211 32.4765 36.1211 C 32.1015 36.1211 31.7734 35.9805 31.5156 35.8633 C 30.0859 35.0898 27.6015 32.9571 25.2812 30.6602 C 22.9843 28.3633 20.8515 25.8789 20.1015 24.4258 C 19.9609 24.1680 19.8437 23.8398 19.8437 23.4883 C 19.8437 23.1836 19.9375 22.8789 20.1953 22.6211 L 21.8359 20.9102 C 22.8906 19.8320 23.4999 18.8945 23.4999 17.8164 C 23.4999 16.9727 23.1250 16.0586 22.3515 14.9571 L 17.3124 7.8555 C 16.4921 6.7305 15.3437 6.2383 14.0781 6.2383 C 12.5312 6.2383 10.9140 6.9414 9.5546 8.2774 C 7.2812 10.4571 6.2734 13.1524 6.2734 16.1289 C 6.2734 22.8555 11.4062 31.0117 18.1562 37.7617 Z"></path>
  </symbol>
  <symbol xmlns="http://www.w3.org/2000/svg" stroke-width="3" stroke="#000000" fill="none" viewBox="0 0 64 64" id="attachment">
    <path d="M49.78,31.63,32,49.39c-2.09,2.09-10.24,6-16.75-.45-4.84-4.84-5.64-11.75-.95-16.58,5-5.17,15.24-15.24,20.7-20.7,2.89-2.89,7.81-4.28,12.17.07s2.41,9.44,0,11.82L27.81,43a4.61,4.61,0,0,1-6.89-.06c-2.19-2.19-1.05-5.24.36-6.66l18-17.89"></path>
  </symbol>
  <symbol version="1.1" xmlns="http://www.w3.org/2000/svg" xmlns:xlink="http://www.w3.org/1999/xlink" viewBox="0 -1 20 20" id="image">
    <title>image / 39 - image, landscape, picture, image icon</title>
    <g id="Free-Icons" stroke="none" stroke-width="1" fill="none" fill-rule="evenodd">
      <g transform="translate(-599.000000, -601.000000)" id="Group">
        <g transform="translate(597.000000, 598.000000)" id="Shape">
          <path d="M5,4 L19,4 C20.1045695,4 21,4.8954305 21,6 L21,18 C21,19.1045695 20.1045695,20 19,20 L5,20 C3.8954305,20 3,19.1045695 3,18 L3,6 C3,4.8954305 3.8954305,4 5,4 Z" stroke="#000000" stroke-width="2" stroke-linecap="round" stroke-linejoin="round"></path>
          <path d="M3,15.7499831 L7.71965625,11.0303269 C7.86030854,10.8896745 8.051074,10.8106569 8.24998641,10.8106569 C8.44889881,10.8106569 8.63966427,10.8896745 8.78031656,11.0303269 L12.9696563,15.2196675 C13.1103085,15.3603198 13.301074,15.4393375 13.4999864,15.4393375 C13.6988988,15.4393375 13.8896643,15.3603198 14.0303166,15.2196675 L15.9696563,13.2803269 C16.1103085,13.1396745 16.301074,13.0606569 16.4999864,13.0606569 C16.6988988,13.0606569 16.8896643,13.1396745 17.0303166,13.2803269 L20.9999831,17.25" stroke="#000000" stroke-width="2" stroke-linecap="round" stroke-linejoin="round"></path>
          <circle fill="#000000" cx="16.5" cy="8.5" r="1.5"></circle>
        </g>
      </g>
    </g>
  </symbol>
   <symbol xmlns="http://www.w3.org/2000/svg" viewBox="-8 0 60 60" id="document-file">
    <defs></defs>
    <path d="M114,498a4,4,0,0,0-4,4v8H82a4,4,0,0,1-4-4V454a4,4,0,0,1,4-4h36a4,4,0,0,1,4,4v44h-8Zm0,12v-8h8ZM90,466h20a2,2,0,0,1,0,4H90A2,2,0,1,1,90,466Zm0,10h20a2,2,0,0,1,0,4H90A2,2,0,1,1,90,476Zm0,10h20a2,2,0,0,1,0,4H90A2,2,0,1,1,90,486Z" id="document" transform="translate(-78 -450)"></path>
  </symbol>
</svg>